<svg
    xmlns="http://www.w3.org/2000/svg"
    viewBox="0 0 16 16"
    id="vector">
    <g
        id="group_1"
        transform="translate(-10 -14) scale(2 2)">
        <path
            id="path"
            d="M 10.865 11.426 C 10.415 10.342 10.571 9.421 10.006 8.299 C 9.854 7.997 9.65 7.681 9.369 7.343 C 8.803 7.299 8.181 7.432 7.62 7.715 C 7.088 7.983 6.611 8.384 6.286 8.895 C 6.39 9.323 6.523 9.675 6.675 9.977 C 7.24 11.099 8.07 11.52 8.675 12.529 C 8.974 13.029 9.245 13.854 9.397 14.366 C 9.535 14.834 10.309 14.713 10.975 14.377 C 11.643 14.041 12.203 13.49 11.91 13.1 C 11.589 12.673 11.089 11.964 10.865 11.426 Z M 7.812 9.702 C 8.281 10.635 8.91 10.863 9.478 11.835 C 9.918 12.59 10.259 13.489 10.377 14.034 C 10.246 14.091 10.048 14.166 9.906 14.176 C 9.728 13.579 9.453 12.774 9.14 12.251 C 8.832 11.737 8.482 11.37 8.142 11.016 C 7.619 10.467 7.161 9.989 6.875 8.999 C 7.126 8.675 7.464 8.4 7.864 8.199 C 8.264 7.997 8.697 7.886 9.101 7.878 C 9.366 8.224 9.538 8.542 9.659 8.849 C 9.019 8.856 8.118 9.29 7.812 9.702 Z"
            fill="#ecbf38"
            stroke-width="0.310815"/>
    </g>
</svg>
