<svg
    xmlns="http://www.w3.org/2000/svg"
    viewBox="0 0 24 24"
    id="vector">
    <g id="group">
        <path
            id="path"
            d="M 6 12 C 6 13.657 4.657 15 3 15 C 1.343 15 0 13.657 0 12 C 0 10.343 1.343 9 3 9 C 4.657 9 6 10.343 6 12 Z M 15 12 C 15 13.657 13.657 15 12 15 C 10.343 15 9 13.657 9 12 C 9 10.343 10.343 9 12 9 C 13.657 9 15 10.343 15 12 Z M 24 12 C 24 13.657 22.657 15 21 15 C 19.343 15 18 13.657 18 12 C 18 10.343 19.343 9 21 9 C 22.657 9 24 10.343 24 12 Z"
            fill="#3c3c3c"/>
    </g>
</svg>
