<svg
    xmlns="http://www.w3.org/2000/svg"
    viewBox="0 0 24 24"
    id="vector">
    <g
        id="group"
        transform="translate(-8 0)">
        <path
            id="path"
            d="M 12 18 C 13.657 18 15 19.343 15 21 C 15 22.657 13.657 24 12 24 C 10.343 24 9 22.657 9 21 C 9 19.343 10.343 18 12 18 Z M 12 9 C 13.657 9 15 10.343 15 12 C 15 13.657 13.657 15 12 15 C 10.343 15 9 13.657 9 12 C 9 10.343 10.343 9 12 9 Z M 12 0 C 13.657 0 15 1.343 15 3 C 15 4.657 13.657 6 12 6 C 10.343 6 9 4.657 9 3 C 9 1.343 10.343 0 12 0 Z"
            fill="#5fabed"
            stroke="#5fabed"/>
    </g>
</svg>
